<?xml version="1.0" standalone="no"?><!DOCTYPE svg PUBLIC "-//W3C//DTD SVG 1.1//EN" "http://www.w3.org/Graphics/SVG/1.1/DTD/svg11.dtd"><svg t="1608727375727" class="icon" viewBox="0 0 1168 1024" version="1.1" xmlns="http://www.w3.org/2000/svg" p-id="14076" width="73" height="64" xmlns:xlink="http://www.w3.org/1999/xlink"><defs><style type="text/css"></style></defs><path d="M786.432 501.4528l-49.152 47.616 47.616 49.152 49.152-47.616zM469.7088 807.936l47.616 49.152 259.1744-250.7776-47.616-49.152zM754.688 61.0304A61.056 61.056 0 0 0 693.6576 0.0512H0v827.136a61.056 61.056 0 0 0 61.0304 61.0304h269.3632L754.688 463.4112z m-364.3392 595.2h-71.4752v-75.0592h71.4752z m116.8384-337.9712c-7.5776 15.9744-23.8592 35.84-48.64 59.6992s-41.2672 40.7552-49.3568 50.8928a104.8064 104.8064 0 0 0-18.432 36.1472c-4.1984 14.08-6.0416 32.768-5.5296 56.4224h-64.9216q0-41.3184 6.656-65.9456a131.4304 131.4304 0 0 1 19.8656-43.1104q13.2096-18.432 47.9232-54.1696t44.6464-52.0192c6.656-10.8544 9.9328-26.88 9.9328-48.3328s-7.5776-40.3456-22.8352-56.7296-37.376-24.6784-66.3552-24.6784q-97.9968 0-98.0992 116.48H197.12c1.024-35.4304 5.12-62.2592 12.4928-80.64s19.2-34.9184 35.4304-49.3568a157.184 157.184 0 0 1 54.1696-32 192.192 192.192 0 0 1 63.0784-10.3424q67.1232 0 111.7184 39.424t44.6464 105.0112a122.88 122.88 0 0 1-11.52 53.248z m-78.6432 579.072l77.312-29.184-45.568-47.104z m0 0" fill="#ffffff" p-id="14077"></path></svg>