<?xml version="1.0" standalone="no"?><!DOCTYPE svg PUBLIC "-//W3C//DTD SVG 1.1//EN" "http://www.w3.org/Graphics/SVG/1.1/DTD/svg11.dtd"><svg t="1608125023119" class="icon" viewBox="0 0 1024 1024" version="1.1" xmlns="http://www.w3.org/2000/svg" p-id="3198" xmlns:xlink="http://www.w3.org/1999/xlink" width="128" height="128"><defs><style type="text/css"></style></defs><path d="M708.85 31.039L434.207 305.562l83.255 83.255 54.978-54.978-27.428-27.428 164.81-164.81 192.24 192.238L737.25 498.771l-27.55-27.428-54.856 54.856 82.284 82.285 274.645-274.523L708.85 31.039z m-218.817 659.85l27.428 27.428-164.69 164.81L160.534 690.89l164.81-164.81 27.429 27.427 54.977-54.977-83.133-83.134L49.728 690.04 352.65 992.961l274.645-274.523-82.284-82.284-54.978 54.735z m-126.217 38.593l384.478-384.477-50.609-50.609-384.478 384.478 50.609 50.608z" p-id="3199" fill="#ffffff"></path></svg>