<?xml version="1.0" standalone="no"?><!DOCTYPE svg PUBLIC "-//W3C//DTD SVG 1.1//EN" "http://www.w3.org/Graphics/SVG/1.1/DTD/svg11.dtd"><svg t="1608729191724" class="icon" viewBox="0 0 1036 1024" version="1.1" xmlns="http://www.w3.org/2000/svg" p-id="22846" xmlns:xlink="http://www.w3.org/1999/xlink" width="64.75" height="64"><defs><style type="text/css"></style></defs><path d="M92.854169 0.422064A227.809263 227.809263 0 0 1 221.232093 49.240847c33.061712 17.199125 66.475144 34.433421 99.536856 51.667718l515.270295 266.920565c46.778805 23.705951 211.383923 83.639096 199.073712 152.119046-11.255051 64.716542-100.592017 87.015612-151.239746 113.394637q-244.269775 126.267601-488.187829 252.570375v-186.411779q179.904953-92.572793 359.458185-185.145586l-173.046406-90.427299q-191.511724-98.974103-382.671728-198.018551V989.389312c-58.033856 28.559691-142.798457 64.822058-187.46694-8.617148-18.992898-31.373454-8.793008-141.321232-8.793009-190.878628V310.428371c0-60.00349-10.90333-232.663004 10.19989-266.955737C31.65483 13.822609 57.682135 14.666738 92.854169 0.422064z" p-id="22847" fill="#ffffff"></path></svg>