<?xml version="1.0" standalone="no"?><!DOCTYPE svg PUBLIC "-//W3C//DTD SVG 1.1//EN" "http://www.w3.org/Graphics/SVG/1.1/DTD/svg11.dtd"><svg t="1608723687284" class="icon" viewBox="0 0 1283 1024" version="1.1" xmlns="http://www.w3.org/2000/svg" p-id="2952" xmlns:xlink="http://www.w3.org/1999/xlink" width="160.375" height="128"><defs><style type="text/css"></style></defs><path d="M1217.792 0H65.792a65.792 65.792 0 0 0 0 131.584h1152A65.792 65.792 0 0 0 1217.792 0z m-530.56 352.832a63.168 63.168 0 0 0-90.88 0L53.632 911.104a67.2 67.2 0 0 0 0 93.056 62.528 62.528 0 0 0 90.24 0l497.92-512s497.28 512 497.92 512a63.04 63.04 0 0 0 90.24 0 67.2 67.2 0 0 0 0-93.056l-542.72-558.272z" fill="#ffffff" p-id="2953"></path></svg>