<?xml version="1.0" standalone="no"?><!DOCTYPE svg PUBLIC "-//W3C//DTD SVG 1.1//EN" "http://www.w3.org/Graphics/SVG/1.1/DTD/svg11.dtd"><svg t="1608125603280" class="icon" viewBox="0 0 1024 1024" version="1.1" xmlns="http://www.w3.org/2000/svg" p-id="6956" xmlns:xlink="http://www.w3.org/1999/xlink" width="128" height="128"><defs><style type="text/css"></style></defs><path d="M544.618667 100.48l268.458666 253.568a32.341333 32.341333 0 0 1 0 47.552 37.098667 37.098667 0 0 1-50.325333 0L520.96 173.248 262.741333 417.130667c-14.250667 13.44-37.333333 13.44-51.584 0a33.130667 33.130667 0 0 1 0-48.682667L486.208 108.629333c1.258667-1.194667 2.858667-1.685333 4.202667-2.624 1.301333-1.856 2.197333-3.882667 3.882666-5.525333a37.098667 37.098667 0 0 1 50.325334 0z" p-id="6957" fill="#d81e06"></path><path d="M333.44 680.170667h-88v246.805333H172.778667V680.170667H84.8v-59.178667H333.44v59.178667zM651.178667 774.08c0 48.789333-12.885333 87.530667-38.613334 116.202667-25.706667 28.714667-61.333333 43.072-106.752 43.072-45.290667 0-80.810667-14.357333-106.517333-43.072-25.728-28.693333-38.634667-67.413333-38.634667-116.202667 0-49.216 12.885333-88.064 38.634667-116.629333 25.706667-28.608 61.226667-42.858667 106.517333-42.858667 45.184 0 80.682667 14.250667 106.56 42.858667 25.834667 28.565333 38.805333 67.434667 38.805334 116.629333z m-96.32 77.482667a95.146667 95.146667 0 0 0 15.744-33.002667c3.370667-12.650667 5.056-27.541333 5.056-44.693333 0-18.346667-1.941333-34.005333-5.845334-46.848-3.925333-12.885333-9.024-23.317333-15.338666-31.253334a58.666667 58.666667 0 0 0-22.229334-17.898666 64.853333 64.853333 0 0 0-26.218666-5.525334c-9.216 0-17.856 1.792-26.005334 5.312-8.149333 3.562667-15.616 9.450667-22.421333 17.706667-6.336 7.658667-11.477333 18.24-15.424 31.744-4.010667 13.504-5.973333 29.141333-5.973333 46.954667 0 18.218667 1.898667 33.749333 5.781333 46.549333 3.84 12.842667 8.896 23.274667 15.189333 31.338667 6.293333 8.085333 13.76 14.037333 22.144 17.898666a64.362667 64.362667 0 0 0 53.397334-0.085333 59.328 59.328 0 0 0 22.144-18.197333zM939.2 717.568a125.44 125.44 0 0 1-6.570667 40.192c-4.437333 13.077333-10.752 24.085333-18.986666 32.981333-11.242667 12.032-23.744 21.162667-37.546667 27.328s-30.997333 9.28-51.584 9.28h-45.226667v99.648h-72.682666V620.970667h119.616c17.898667 0 33.024 1.685333 45.290666 5.013333a103.082667 103.082667 0 0 1 32.682667 15.082667c11.349333 8.085333 20.010667 18.432 26.005333 31.061333 6.058667 12.629333 9.002667 27.776 9.002667 45.44z m-75.093333 1.749333c0-8.618667-2.133333-16.021333-6.464-22.272-4.266667-6.186667-9.28-10.538667-14.954667-12.970666-7.552-3.306667-14.933333-5.12-22.101333-5.44a607.509333 607.509333 0 0 0-28.778667-0.512h-12.501333v91.456h20.842666c12.330667 0 22.528-0.832 30.592-2.453334 7.957333-1.642667 14.677333-4.928 20.117334-9.856 4.672-4.373333 8.021333-9.578667 10.133333-15.701333 2.048-6.058667 3.114667-13.482667 3.114667-22.250667z" p-id="6958" fill="#d81e06"></path></svg>