<?xml version="1.0" standalone="no"?><!DOCTYPE svg PUBLIC "-//W3C//DTD SVG 1.1//EN" "http://www.w3.org/Graphics/SVG/1.1/DTD/svg11.dtd"><svg t="1608723225334" class="icon" viewBox="0 0 1024 1024" version="1.1" xmlns="http://www.w3.org/2000/svg" p-id="2667" width="128" height="128" xmlns:xlink="http://www.w3.org/1999/xlink"><defs><style type="text/css"></style></defs><path d="M128.699077 51.751385H905.344c17.782154 0 32.295385-11.618462 32.295385-25.915077C937.639385 11.618462 923.145846 0 905.344 0H128.699077c-17.782154 0-32.374154 11.618462-32.374154 25.895385 0 14.217846 14.592 25.856 32.374154 25.856z m853.464615 412.612923c5.927385 4.292923 9.432615 11.067077 9.432616 18.274461s-3.505231 13.981538-9.412923 18.254769c-13.528615 10.043077-32.236308 10.043077-45.745231 0L516.952615 165.809231 97.486769 500.893538c-13.528615 10.043077-32.236308 10.043077-45.745231 0a22.567385 22.567385 0 0 1-9.412923-18.254769c0-7.207385 3.485538-13.981538 9.412923-18.274461L494.148923 110.985846a38.459077 38.459077 0 0 1 45.745231 0l442.289231 353.378462zM19.584 653.863385h297.491692v47.261538H196.046769V1016.910769H141.124923V701.144615H19.584v-47.28123z m617.668923 46.76923c30.523077 33.890462 45.764923 78.966154 45.764923 135.24677 0 55.256615-15.261538 100.155077-45.764923 134.734769C605.371077 1006.198154 561.831385 1024 506.555077 1024c-55.256615 0-98.835692-17.959385-130.697846-53.897846-30.168615-34.225231-45.252923-78.966154-45.252923-134.222769 0-55.591385 15.084308-100.509538 45.252923-134.73477 31.192615-36.273231 74.752-54.409846 130.697846-54.409846 55.256615 0 98.816 17.959385 130.697846 53.897846z m-220.711385 34.067693c-20.342154 24.733538-30.523077 58.466462-30.523076 101.179077 0 42.023385 10.180923 75.579077 30.523076 100.667077 21.700923 25.757538 51.692308 38.636308 89.993847 38.636307 38.656 0 68.489846-12.544 89.52123-37.612307 20.676923-24.753231 31.015385-58.643692 31.015385-101.691077 0-43.047385-10.338462-77.292308-31.015385-102.715077-20.676923-25.068308-50.510769-37.612308-89.501538-37.612308s-69.001846 13.036308-90.013539 39.148308z m307.456-80.836923h150.528c86.449231 0 129.673846 36.765538 129.673847 110.316307 0 74.24-43.559385 111.36-130.697847 111.36h-94.070153v141.351385H723.977846V653.863385z m55.433847 47.261538v127.133539h90.505846c27.470769 0 47.458462-5.100308 60.022154-15.261539 12.544-10.515692 18.806154-26.781538 18.806153-48.817231 0-22.705231-6.439385-38.636308-19.318153-47.79323-12.544-10.161231-32.374154-15.241846-59.510154-15.241847h-90.505846z" p-id="2668" fill="#ffffff"></path></svg>