<?xml version="1.0" standalone="no"?><!DOCTYPE svg PUBLIC "-//W3C//DTD SVG 1.1//EN" "http://www.w3.org/Graphics/SVG/1.1/DTD/svg11.dtd"><svg t="1608727775187" class="icon" viewBox="0 0 1060 1024" version="1.1" xmlns="http://www.w3.org/2000/svg" p-id="21095" xmlns:xlink="http://www.w3.org/1999/xlink" width="66.25" height="64"><defs><style type="text/css"></style></defs><path d="M522.96404 978.64404c-9.929697 0-23.169293-6.619798-29.789091-13.239596l-112.536565-115.846464H109.226667c-59.578182 0-109.226667-46.338586-109.226667-109.226667V154.479192c0-59.578182 49.648485-109.226667 109.226667-109.226667H949.94101c59.578182 0 109.226667 49.648485 109.226667 109.226667v589.16202c0 62.888081-49.648485 109.226667-109.226667 109.226667-16.549495 0-26.479192-9.929697-26.479192-26.479192s9.929697-26.479192 26.479192-26.479192c26.479192 0 52.958384-26.479192 52.958384-52.958384V154.479192c0-26.479192-26.479192-52.958384-52.958384-52.958384H109.226667c-26.479192 0-52.958384 26.479192-52.958384 52.958384v589.16202c0 29.789091 26.479192 52.958384 52.958384 52.958384h284.651313c9.929697 0 13.239596 3.309899 19.859394 9.929697l115.846464 115.846465 112.536566-115.846465c6.619798-6.619798 9.929697-9.929697 19.859394-9.929697h105.916768c16.549495 0 26.479192 9.929697 26.479192 26.479192s-9.929697 26.479192-26.479192 26.479192h-95.987071l-112.536566 115.846464c-9.929697 6.619798-19.859394 13.239596-36.408889 13.239596z m0 0" p-id="21096" fill="#ffffff"></path><path d="M334.299798 439.130505c0 29.789091-26.479192 56.268283-56.268283 56.268283S221.763232 468.919596 221.763232 439.130505s26.479192-56.268283 56.268283-56.268283 56.268283 23.169293 56.268283 56.268283M585.852121 435.820606c0 29.789091-26.479192 56.268283-56.268283 56.268283-29.789091 0-56.268283-26.479192-56.268282-56.268283 0-29.789091 26.479192-56.268283 56.268282-56.268283 29.789091 0 56.268283 26.479192 56.268283 56.268283m251.552323 3.309899c0 29.789091-26.479192 56.268283-56.268282 56.268283-29.789091 0-56.268283-26.479192-56.268283-56.268283s26.479192-56.268283 56.268283-56.268283c29.789091 0 56.268283 23.169293 56.268282 56.268283" p-id="21097" fill="#ffffff"></path></svg>